<svg xmlns="http://www.w3.org/2000/svg" viewBox="0 0 960.26 200.44"><defs><style>.cls-1{fill:#ae303a;}.cls-2{fill:#f6f4f5;}.cls-3{fill:#0d8c8b;}.cls-4{fill:#010101;}</style></defs><title>Risorsa 5</title><g id="Livello_2" data-name="Livello 2"><g id="Livello_1-2" data-name="Livello 1"><path class="cls-1" d="M566,156.19c1.71,9.94-6.3,14-11.87,19.49-1.66,1.64-3.42.73-5-.61-1.87-1.63-3.74-3.25-5.69-4.77a27.36,27.36,0,0,1-10.59-16.65,148.13,148.13,0,0,1-3.72-34.43c.19-17.43-.52-34.87-.08-52.28C529.4,55.45,525,45,523.35,34c-2.77-18.34-2.77-18.34,11.11-31.08,4.65-4.28,12.86-3.82,17.07.94.14.16.23.35.37.5,3.89,4.42,4.09,13.07,10.33,13.85,8.91,1.12,18.14-.94,26.78-4.06,9.44-3.42,17.7.4,19.87,10.4,1,4.44,2.9,3.94,5.48,2.61,17-8.76,33.93-3.65,50.91-.06,2.66.57,3.13,2.45,3.79,4.35,2.35,6.78,4.62,13.6,7.06,20.84,3.82-2.5,4.89-6.49,6.36-9.85,3.92-9,10.17-16.16,17.16-22.6,5.51-5.07,13.24-4.58,20-4.31,8.74.34,17.9.21,25.6,5.95,3,2.26,5.55.43,7.33-2.19,3.83-5.61,8.48-6.75,15.41-5.68a257.83,257.83,0,0,0,84.75-.46,17,17,0,0,1,9.7.87c13.39,5.39,27.8,4.15,41.74,5.35,14.19,1.22,26.88,6.57,40,10.85,1.82.59,2.35,1.93,2.79,3.69,1.63,6.45,2.86,12.88,2.53,19.62-.73,14.66,1.05,29,6.74,42.64,2.37,5.69,2,11.84,2.58,17.78.9,9.28,1,18.63,1.36,28,.19,4.78-1.19,8.73-5.34,11.83a197.35,197.35,0,0,0-16.18,13.55c-6,5.61-13.8,6.16-21,6.19-13.65,0-23.11,6.21-30.23,17a6.44,6.44,0,0,1-6.74,3.24c-11.12-1.13-22.24-2.31-33.38-3.32-3.54-.32-2.44-2.92-2.38-4.63.51-14.3,1-28.6,1.85-42.89A359.23,359.23,0,0,0,846,96.27c-.56-7.84-5.39-12.25-13.37-13.09-3.35-.35-4.12,1.83-5,4.33-2.57,7.2-2.46,14.74-2.32,22.12.55,28.66-1.78,57.21-2.9,85.81-.15,3.94-1.08,5.65-5.51,4.78-6.49-1.28-13.1-2.06-19.68-2.78-4-.44-5.79-2.33-6.18-6.24q-4.2-42.39-8.52-84.75c-.45-4.54-.77-9.09-1-13.65-.19-3.35-1.29-3.7-4.72-3-10.35,2.08-20.85,3.37-31.29,5-2.61.41-4.27-.57-5.53-2.93-1.85-3.46-4.18-6.68-6-10.15-2.3-4.38-5.53-9.66-10-9-5,.77-8.32,6.33-10.69,11.22-5.63,11.57-1.61,21.52,5.43,30.92,2.67,3.57,6,4.52,8.5.6,7.78-12.27,20.49-10.45,32.1-11.89,2.17-.27,3,.92,3.6,3.19,4,15-.88,28.92-6.12,42.23-2.27,5.76-9.2,9.84-14.36,14.28-4.69,4.05-9.83,7.58-14.79,11.3a9.83,9.83,0,0,1-2.66,1.56c-5.21,1.76-23.93-4.25-27.22-8.75-10.33-14.17-21.74-27.66-27.77-46.5-4.41,12.44-8.21,23.1-12,33.77A25.52,25.52,0,0,1,642.64,170c-5.54,1.91-13.4.35-18.84-4.8-5.79-5.49-11.71-10.85-18.31-16.93,0,8.72-.39,17.32.14,25.87.35,5.59-1.65,8.06-7,8.34a10.58,10.58,0,0,0-1.23.22c-20,3.81-20,3.81-26.46-16.09,0-9.08-.15-18.16-.08-27.25a59.1,59.1,0,0,0-1.72-13.46c-.34-1.55-1.07-3.55-2.94-3.54-2.12,0-2.25,2.25-2.4,3.76-.26,2.66-.66,5.49,0,8C565.66,141.4,565.76,148.79,566,156.19Zm72.62,2.56c.64.63,1.3,1.62,2.2.44,1.1-1.47-.49-1.24-1.13-1.58-1.34-3.5-5.46-4.65-7.61-8.85,5.63,1.64,9.58,3.92,11.82,8.5,1.64-.86,2.2-2.19,3-3.42,6.63-10.22,8.52-22.36,13.61-33.21,6.85-14.59,8.77-29.87,6.4-45.79-1.51-10.15-1.94-20.43-3.24-30.62-.48-3.67-.06-5.46-3.93-6-15-2.15-29.27-.63-43.26,5.62-7.89,3.51-7.22,12.69-13.14,17.26-.71.55-.07,2.36,1.24,1.86,2.2-.84,2.87.17,2.11,1.74-2.4,5-.45,9.77,0,14.73,1,11.74.88,23.57,1.93,35.29.45,5,1.32,10.3,4,14.83C619.38,141,627.06,151.6,638.64,158.75Zm102.59-15a2.16,2.16,0,0,1-.55.27c-.19,0-.5.07-.58,0-1.53-1.91.49-2.93,1.24-4.07,3.66-5.6,7.5-11.08,10.93-16.09-6.64,6.34-13.62,13.09-20.71,19.72-6.54,6.11-11.27,6.41-16.18.48A115.91,115.91,0,0,1,692,98.21a14.64,14.64,0,0,1,.52-8.54c5-14.68,13.32-27.5,22.25-40,2.1-2.94,4.75-3.69,8.12-2.39a128,128,0,0,0,12.85,4.63c5.64,1.51,9.3,4.25,11,10.3s2.47,12.41,6.73,18c1.49-10.15,1.83-19.65.29-29.08-.74-4.52,1.11-12.19-8.34-8.9-.42.14-1.15-.41-1.66-.75-7.16-4.8-15.94-5.41-23.59-9.07-2.35-1.12-5.5-.62-8.71.9-7.72,3.64-8.89,11.68-12.92,17.56-6.25,9.1-11,19.33-15.56,29.45-2.54,5.61-9.14,11.44-1.85,18.34.33.31.06,1.68-.35,2.25-1.53,2-.69,4.2.13,5.9,5.93,12.39,11.47,25,20.79,35.45a42.56,42.56,0,0,0,21.75,13.39c-.37,2.56-4.55,1.25-4.29,4.84,7,.06,12.27-3.6,16.72-8.16,2.31-2.37,6.82-3.93,5.38-8.75.34.44.65,1.13,1.16.14Zm65.71,36.57c2.57-7.54,0-15.46,1.15-22.89a139.29,139.29,0,0,0,1.52-22.09c0-25.1,3.16-50,4.25-75.07.15-3.47.25-7.38,1.88-10.23,1.27-2.22,5,.45,7.62-.45a3.61,3.61,0,0,1,1.17-.4c6.65.09,13.27.92,19,4.36,4,2.42,2.58,7,2.36,10.84-.06.92-.18,2.19,1.25,2.44s1.78-.84,2-1.82a83.81,83.81,0,0,0,1.78-10.37c.45-4.79-2-9.31-.52-14.18,1.55-5.19-1.06-7.13-6.41-6.24-7.51,1.26-14.37,6-22.21,4.83-7-1.07-13.95-1.55-21-2.09-8.29-.64-16.83-.11-24.69-3.88-6.94-3.33-13.74.83-12,8.2,2.72,11.38,3.66,23.59,11.78,33.95-1.22-7-2.39-13.22-3.36-19.49-.22-1.42-1.08-3.09,1.1-4.31,5-2.76,10.07-4.79,15.81-4.95,2.25-.07,3.82.32,4.36,3.14,1.12,5.82,2.9,11.5,4.08,17.31,1.47,7.25,3.34,14.53,3.71,21.86.54,10.79-.76,21.42,1.39,32.43s-.25,23,2.37,34.53C807.18,163.64,806.51,172.09,806.94,180.3Zm74.51-66.23c1.84,16,7.35,28.48,16.6,39.53,4,4.82,8.82,7,14.6,6.45,5.33-.51,10.13-4,14.12-6.83,5.35-3.79,10.31-8.41,16.39-10.85,4.54-1.83,5.41-4.29,5.71-8.76.81-12-3.06-23.65-2.32-35.66.25-3.94-2.8-8.33-6.82-8-11.52.92-20-5.36-29-10.56-5.22-3-7.6-6.72-4-13.2,2.18-3.94,4-8.13,6.75-11.74,2.26-2.92,4.36-6.73,8.77-5.8,4.18.89,5.67,4.88,7.66,8.32a106.93,106.93,0,0,1,10.29,25.39c2.12-6.46,1.44-13.47.69-19.29-1.15-8.94-6.66-17.36-14-23.58-5.91-5-13.43-3.62-17.52,3.07-4.3,7-8.74,14-12.51,21.39-3.34,6.56-2.69,14.63-8.17,20.27-.26.27.52,1.9,1.14,2.63C896,94.15,903.68,99,913.37,100.26c.18-2.5-2.68-1.33-3.58-3.7,9.64,1.7,19.54-.56,25.35,10.36,6.43,12.06,7.39,22.56-3.27,33.05-4.32,4.26-9.61,7.37-14.15,11.44-2.43,2.18-6.77,4.33-9.74,2-6.34-5.05-13.82-8.92-17.63-16.89C887.12,129.71,883.05,123.34,881.45,114.07Zm-335-87.81c-2.7,6.52,2,12.51-2.61,17.15-.3.3.21,1.6.58,2.32,5.31,10.41,4.49,22,4.35,32.84-.29,20.83.13,41.66-.33,62.49-.08,3.58.81,6.48,5.84,8.13-6.72-25.43,4.31-49.22,3.07-74.1,28.69,27.29,37.39,61.28,35.95,99,1.18-6.29,3.16-11.92,3.11-18.18-.28-36.16-2.57-72.34.47-108.5.25-3,2.2-5.85,1-9-2.31-.35-4.22,2.42-6.53.59-1.91,2.45-7.38.88-6.88,5.95.74,7.56,1.32,15.16,2.56,22.64,1.6,9.64.56,19.08-1.33,28.91C582,83.18,572,74.07,564.79,63.2A162,162,0,0,1,546.45,26.26ZM871.93,40.47c-2.53-1.74-1.63-4.22-2.87-6a7.68,7.68,0,0,0-7.41-3.28c-3.29.63-1.28,3.77-.83,5.74a217.12,217.12,0,0,1,5.09,50.51c0,5.77-1,12,1,17.16,1.56,4.11,2.69,7.83,2.65,12.14-.07,6.61.08,13.23.23,19.84,0,1.61-.13,4.23.71,4.68,6,3.22,3.39,8.47,3.55,13.1.07,2.16-1.69,4.8,2,6.88,0-12.18,0-23.73,0-35.28,0-21.27.5-42.49,2-63.74.56-8,2.33-15.88,2.3-23.95,0-3.71-1.6-4-4.49-3.94C871.66,34.48,872.39,37.66,871.93,40.47Zm.12,103.1C869,155.74,869,172,871.87,174.92,874.11,164.2,871.59,153.84,872.05,143.57Z"/><path class="cls-2" d="M741.18,143.6c1.45,4.86-3.06,6.42-5.37,8.79-4.45,4.56-9.69,8.22-16.72,8.16-.26-3.59,3.92-2.28,4.29-4.84a42.56,42.56,0,0,1-21.75-13.39c-9.32-10.45-14.86-23.06-20.79-35.45-.82-1.7-1.66-3.85-.13-5.9.41-.57.68-1.94.35-2.25-7.29-6.9-.69-12.73,1.85-18.34,4.57-10.12,9.31-20.35,15.56-29.45,4-5.88,5.2-13.92,12.92-17.56,3.21-1.52,6.36-2,8.71-.9,7.65,3.66,16.43,4.27,23.59,9.07.51.34,1.24.89,1.66.75,9.45-3.29,7.6,4.38,8.34,8.9,1.54,9.43,1.2,18.93-.29,29.08-4.26-5.64-5.09-12.1-6.73-18s-5.33-8.79-11-10.3a128,128,0,0,1-12.85-4.63c-3.37-1.3-6-.55-8.12,2.39-8.93,12.49-17.22,25.31-22.25,40a14.64,14.64,0,0,0-.52,8.54A115.91,115.91,0,0,0,715.38,144c4.91,5.93,9.64,5.63,16.18-.48,7.09-6.63,14.07-13.38,20.71-19.72-3.43,5-7.27,10.49-10.93,16.09-.75,1.14-2.77,2.16-1.24,4.07.08.1.39.07.58,0a2.16,2.16,0,0,0,.55-.27Z"/><path class="cls-2" d="M806.94,180.3c-.43-8.21.24-16.66-1.55-24.57-2.62-11.57-.18-23.38-2.37-34.53s-.85-21.64-1.39-32.43c-.37-7.33-2.24-14.61-3.71-21.86-1.18-5.81-3-11.49-4.08-17.31-.54-2.82-2.11-3.21-4.36-3.14-5.74.16-10.85,2.19-15.81,4.95-2.18,1.22-1.32,2.89-1.1,4.31,1,6.27,2.14,12.51,3.36,19.49-8.12-10.36-9.06-22.57-11.78-33.95-1.76-7.37,5-11.53,12-8.2,7.86,3.77,16.4,3.24,24.69,3.88,7,.54,14,1,21,2.09,7.84,1.21,14.7-3.57,22.21-4.83,5.35-.89,8,1,6.41,6.24-1.45,4.87,1,9.39.52,14.18A83.81,83.81,0,0,1,849.15,65c-.23,1-.63,2.06-2,1.82s-1.31-1.52-1.25-2.44c.22-3.88,1.68-8.42-2.36-10.84-5.73-3.44-12.35-4.27-19-4.36a3.61,3.61,0,0,0-1.17.4c-2.6.9-6.35-1.77-7.62.45-1.63,2.85-1.73,6.76-1.88,10.23-1.09,25-4.24,50-4.25,75.07a139.29,139.29,0,0,1-1.52,22.09C806.91,164.84,809.51,172.76,806.94,180.3ZM836.06,42.64c2.3.45,4,1.78,5.72,3.07.9.66,2.1,2,3.11.81.63-.75.51-2.36.33-3.51-.28-1.74-1.7-1.3-2.91-1.14C840.29,42.13,838.27,42.37,836.06,42.64Z"/><path class="cls-2" d="M638.64,158.75c-11.58-7.15-19.26-17.8-26-29.22-2.69-4.53-3.56-9.81-4-14.83-1.05-11.72-1-23.55-1.93-35.29-.41-5-2.36-9.73,0-14.73.76-1.57.09-2.58-2.11-1.74-1.31.5-2-1.31-1.24-1.86,5.92-4.57,5.25-13.75,13.14-17.26,14-6.25,28.31-7.77,43.26-5.62,3.87.56,3.45,2.35,3.93,6,1.3,10.19,1.73,20.47,3.24,30.62,2.37,15.92.45,31.2-6.4,45.79-5.09,10.85-7,23-13.61,33.21-.79,1.23-1.35,2.56-3,3.42-2.24-4.58-6.19-6.86-11.82-8.5,2.15,4.2,6.27,5.35,7.61,8.85Zm-26-59c-.77,7.79,2.21,14.88,4.94,21.68,4,9.84,10.62,18.19,18,25.76,1.61,1.64,4.32,4.48,6.94.2a126.34,126.34,0,0,0,11.24-23.87c3.57-10.05,2.14-20.39,3.67-30.49a44.08,44.08,0,0,0-.88-17.86,143.28,143.28,0,0,1-3.32-17c-.42-3.1.08-9.2-5.82-8.41-8.6,1.16-17.28,3-24.39,8.38-2.71,2-6.94,3.15-7.34,7.65Q614.17,82.77,612.61,99.77Zm17.06-49.41,10.2-3.51C635.38,47.55,631.88,46.68,629.67,50.36Zm31.91,26.45c-2.43,11.41-2.43,11.41,0,16.74Z"/><path class="cls-2" d="M881.45,114.07c1.6,9.27,5.67,15.64,8.9,22.41,3.81,8,11.29,11.84,17.63,16.89,3,2.37,7.31.22,9.74-2,4.54-4.07,9.83-7.18,14.15-11.44,10.66-10.49,9.7-21,3.27-33-5.81-10.92-15.71-8.66-25.35-10.36.9,2.37,3.76,1.2,3.58,3.7C903.68,99,896,94.15,889.81,86.84c-.62-.73-1.4-2.36-1.14-2.63,5.48-5.64,4.83-13.71,8.17-20.27,3.77-7.41,8.21-14.35,12.51-21.39,4.09-6.69,11.61-8.09,17.52-3.07,7.31,6.22,12.82,14.64,14,23.58.75,5.82,1.43,12.83-.69,19.29A106.93,106.93,0,0,0,929.86,57c-2-3.44-3.48-7.43-7.66-8.32-4.41-.93-6.51,2.88-8.77,5.8-2.78,3.61-4.57,7.8-6.75,11.74-3.59,6.48-1.21,10.18,4,13.2,9,5.2,17.52,11.48,29,10.56,4-.32,7.07,4.07,6.82,8-.74,12,3.13,23.64,2.32,35.66-.3,4.47-1.17,6.93-5.71,8.76-6.08,2.44-11,7.06-16.39,10.85-4,2.83-8.79,6.32-14.12,6.83-5.78.55-10.57-1.63-14.6-6.45C888.8,142.55,883.29,130.08,881.45,114.07Zm22-32A42.64,42.64,0,0,0,920,88.92C914.92,85.66,910,82,903.43,82.11Z"/><path class="cls-2" d="M546.45,26.26A162,162,0,0,0,564.79,63.2c7.24,10.87,17.24,20,21,33.33,1.89-9.83,2.93-19.27,1.33-28.91-1.24-7.48-1.82-15.08-2.56-22.64-.5-5.07,5-3.5,6.88-5.95,2.31,1.83,4.22-.94,6.53-.59,1.16,3.17-.79,6-1,9-3,36.16-.75,72.34-.47,108.5.05,6.26-1.93,11.89-3.11,18.18,1.44-37.77-7.26-71.76-35.95-99,1.24,24.88-9.79,48.67-3.07,74.1-5-1.65-5.92-4.55-5.84-8.13.46-20.83,0-41.66.33-62.49.14-10.82,1-22.43-4.35-32.84-.37-.72-.88-2-.58-2.32C548.49,38.77,543.75,32.78,546.45,26.26ZM569.66,82c-.81.59-.14.91.26,1.22a.53.53,0,0,0,.5-.11c.33-.72-.09-1-.73-1.12a5.76,5.76,0,0,0-3.25-4.33C567.76,78.89,567,81.66,569.66,82Zm-4.54-7.74.08.42a3.24,3.24,0,0,1-.27-.35,3.17,3.17,0,0,1-.17-.37Z"/><path class="cls-2" d="M871.93,40.47c.46-2.81-.27-6,3.9-6.1,2.89-.08,4.48.23,4.49,3.94,0,8.07-1.74,15.94-2.3,23.95-1.51,21.25-2,42.47-2,63.74,0,11.55,0,23.1,0,35.28-3.67-2.08-1.91-4.72-2-6.88-.16-4.63,2.48-9.88-3.55-13.1-.84-.45-.68-3.07-.71-4.68-.15-6.61-.3-13.23-.23-19.84,0-4.31-1.09-8-2.65-12.14-1.94-5.12-1-11.39-1-17.16A217.12,217.12,0,0,0,860.82,37c-.45-2-2.46-5.11.83-5.74a7.68,7.68,0,0,1,7.41,3.28C870.3,36.25,869.4,38.73,871.93,40.47Z"/><path class="cls-2" d="M872.05,143.57c-.46,10.27,2.06,20.63-.18,31.35C869,172,869,155.74,872.05,143.57Z"/><path class="cls-2" d="M639.71,157.61c.64.34,2.23.11,1.13,1.58-.9,1.18-1.56.19-2.2-.44Z"/><path class="cls-2" d="M741.23,143.73l1.12.05c-.51,1-.82.3-1.17-.16C741.18,143.6,741.23,143.73,741.23,143.73Z"/><path class="cls-1" d="M836.06,42.64c2.21-.27,4.23-.51,6.25-.77,1.21-.16,2.63-.6,2.91,1.14.18,1.15.3,2.76-.33,3.51-1,1.18-2.21-.15-3.11-.81C840.05,44.42,838.36,43.09,836.06,42.64Z"/><path class="cls-1" d="M612.61,99.77q1.54-17,3.06-34c.4-4.5,4.63-5.6,7.34-7.65,7.11-5.36,15.79-7.22,24.39-8.38,5.9-.79,5.4,5.31,5.82,8.41a143.28,143.28,0,0,0,3.32,17,44.08,44.08,0,0,1,.88,17.86c-1.53,10.1-.1,20.44-3.67,30.49a126.34,126.34,0,0,1-11.24,23.87c-2.62,4.28-5.33,1.44-6.94-.2-7.4-7.57-14.07-15.92-18-25.76C614.82,114.65,611.84,107.56,612.61,99.77Z"/><path class="cls-1" d="M629.67,50.36c2.21-3.68,5.71-2.81,10.2-3.51Z"/><path class="cls-1" d="M661.58,76.81V93.55C659.15,88.22,659.15,88.22,661.58,76.81Z"/><path class="cls-1" d="M903.43,82.11C910,82,914.92,85.66,920,88.92A42.64,42.64,0,0,1,903.43,82.11Z"/><path class="cls-1" d="M569.66,82c-2.66-.3-1.9-3.07-3.22-4.34A5.76,5.76,0,0,1,569.69,82Z"/><path class="cls-1" d="M565.12,74.22l-.36-.3a3.17,3.17,0,0,0,.17.37,3.24,3.24,0,0,0,.27.35C565.18,74.5,565.15,74.36,565.12,74.22Z"/><path class="cls-1" d="M569.69,82c.64.11,1.06.4.73,1.12a.53.53,0,0,1-.5.11c-.4-.31-1.07-.63-.26-1.22Z"/><path class="cls-3" d="M344.2,140.07c-1,1.07-1.64,1.45-1.78,2-3.34,12.31-14.28,15.53-24,20.29-2.61,1.27-4.65.56-7.08-.25-17.83-6-28.38-19.85-36.17-35.48-4.13-8.29-4.55-18.42-6.68-27.71-.44-1.91.11-4.71-2.25-5.23-1.93-.44-2.77,2.14-4,3.43-8.26,8.42-16.1,17.26-27.45,21.92-5.75,2.37-6.26,8-5.73,13.17a47.88,47.88,0,0,0,3.48,14.46,31.32,31.32,0,0,1,1.75,21.16c-1.34,5.29-1.18,10.73-1.15,16.11,0,3.86-1.37,5.6-5.24,6.06-6.58.77-13.13,1.9-19.67,3-2,.32-3.8.56-4.88-1.52-4-7.63-9.66-14.58-8.41-24.12,1.62-12.38,1.65-24.82,1.24-37.28-.23-7.12-2.2-13.83-4.4-22.47-2.08,9.24-3.35,16.82-5.34,24.23-2.17,8.06-5.71,15.54-8.42,23.35a5.67,5.67,0,0,1-5,4c-7.37,1.15-14.7,3.22-22.09,3.42-9.17.26-17.71-2.73-22.55-11.37-6.14-11-14.32-20.83-19.14-33.29-.52,3.85-1.43,7.69-1.49,11.55-.22,13.24-.36,26.4,4.63,39.17,3.33,8.51,2.42,8.58-6.52,9.06-15.24.81-29.36-2.45-43.51-8-12.14-4.8-25.63-4.47-38.47-6.76-7.66-1.36-14.59-4.57-21.7-7.42-3-1.23-2.41-2.62-.67-4.55,2.21-2.46,4-5.38,6.38-7.62C22.27,129.85,24.32,111.74,26,93.85c1.83-19.55-1-38.89-5.41-58-.24-1-.41-2-.6-3.06C17.26,18.3,17.84,17.29,31.63,12.46c7.63-2.67,15.28-5.29,22.86-8.08C58.33,3,60.32,3.28,60,8.16q-2.89,40.65-5.51,81.3c-.5,7.66-.61,15.35-1,23A7.27,7.27,0,0,0,56,118.53c4.55,4.24,9.16,8.42,13.6,12.76,3.59,3.5,5.79,2.5,8.05-1.56,5-9.06,10.44-17.9,15.55-26.91,1.91-3.37,3.69-4.82,6.86-1.3,1.16,1.3,2.91,3,4.78,1.49,1.41-1.15.63-3.17,0-4.69-2.14-5.57-2-11.37-2-17.18.07-19.51.4-39-.11-58.52-.17-6.47,2.06-8.22,7.92-8.45,8.91-.34,17.84-1,26.67-2.16,4.67-.62,5.36.66,4.67,4.86-2.35,14.31-4,28.75-6.73,43-3.33,17.52-2.49,34.45,3.46,51.38,2.26,6.42,6.62,10.33,11.4,14.24,3.19,2.62,4.26,0,5.08-2.56,4.67-14.63,5.6-29.56,4.51-44.84-1.39-19.51-5.24-38.61-8.37-57.84-.73-4.42-.44-7.06,5.06-4.67,1.87.81,4.08.79,6,1.47,9.91,3.45,19.41,4.28,30.05,1.18C208.11,13.69,224,14.61,239,22.18c6.65,3.34,13.9,5.44,20.25,9.45,3.12,2,4.75,1.82,4.72-2.6,0-9.49.12-9.46,10-10.68,5.55-.68,11.11-1.37,16.64-2.23,3.21-.51,5,1,6.43,3.58a23.76,23.76,0,0,1,2.38,19.41c-3.82,13.76-6,28-5,42.43.41,6,1.24,11.93,4.49,17.25a19.79,19.79,0,0,1,2.64,11.27,18.72,18.72,0,0,0,5.78,14.59c3.47,3.28,5.85,3.26,8.72-1.34,7.7-12.36,6.78-25.73,5.51-39.17C319.6,63.51,316.26,43,316,22.22c-.09-6.3,1.93-7.16,7.28-6.16,8.36,1.55,16.77,2.8,25.21,3.85,3.73.46,4.75,2.11,4.69,5.69-.2,10.37-.09,20.75-.05,31.12a10.6,10.6,0,0,0,1.64,6.1c1.07-2.55,2.52-5,3.14-7.68,3.13-13.42,10.53-23.9,20.67-33.08,5.28-4.79,9.71-7.9,16.73-4,2.46,1.38,5.49,1.9,8.33,2.43,12.07,2.28,17.6,10.65,20.1,21.65,1.6,7.08,3,14.21,5.67,21s2.2,14,1.56,20.92c-1.06,11.59-.13,22.5,5.94,32.73a7.28,7.28,0,0,1-.88,8.77c-3.71,4-4.06,8.91-4.44,13.85-.71,9.25-10.07,21.34-18.83,24-7.13,2.19-14.2,5.28-21.5,6.09a43.55,43.55,0,0,1-28.89-6.71c-5.26-3.46-9.13-9-13.89-13.26C345.79,147.12,346.09,143.54,344.2,140.07Zm14.1-41c-.51-.23-1-.49-1.52-.67-.08,0-.27.25-.41.39l1.57.68c4.5,7.88,9,15.77,13.51,23.64,2.49,4.33,5.64,7.69,11.25,7,6.4-.73,9.77-5.44,12.11-10.48,2.25-4.86-1.4-13.42-5.68-14.06C378.72,104,368.37,102.23,358.3,99ZM226.64,106.2c.29.31.58.63.88.94,2.68,2.16,4.26-.44,5.8-1.67a35.15,35.15,0,0,0,5.22-5.78c2.94-3.69,3.23-.53,4,1.85,11.2-12.41,19.57-26.05,23.95-42a7.26,7.26,0,0,0-1.8-7.38c-4.32-4.56-9.13-8.66-14.93-11.07-9.79-4.06-19.32-8.63-30.41-9.1-8-.34-13.63,4.19-20.21,6.8-1.37.55-4.13.37-3.63,3.24s3.43,1,5.29,2.61c-4.85,2.08-6.42,6.52-8.93,10.21a1.94,1.94,0,0,0,.27,2.79c1.17.87,1.82-.24,2.46-1a27.5,27.5,0,0,1,2.36-2.87c1.76-1.59,4.08-2.64,6.24-1.84,1.86.69,1.65,3.14,1.89,5,.35,2.67.31,5.44,1.05,8,3.39,11.82,4,24,5,36.13.37,4.43-1.18,5.59-5.16,4.91-1.34-.22-3.44-1-3.67.89-.29,2.34,2.19,2.14,3.6,2,5.92-.61,6.62,2.94,6.83,7.58a173.87,173.87,0,0,0,1.7,19.22c1.15,7.34.79,14.65,3,22.21s4.32,16,4.3,25c1.81-2,1.46-3.63,1.2-5.18-3.44-20.7-3.1-41.6-3.62-62.47C219.14,109.57,221,106.6,226.64,106.2Zm-53-65.08c.19-4.19,0-7.46-2.13-10.22-.56-.71-1.23-1.24-2.06-.77a1.75,1.75,0,0,0-.72,1.48c.94,3.6-1.73,6.91-.91,10.39,2.41,10.24,3.47,20.68,5.19,31,2.93,17.73.7,34.94-3.73,52-1.07,4.13-1.92,8.44-4.27,12.19-4.19,6.71-13.38,7.84-18.64,2.24-4.57-4.89-7.31-10.95-10.81-16.54-9.88-15.78-12.17-33.22-11.3-51.21.56-11.75,1.3-23.57,4.46-35,1-3.75-2.16-6.93-3.68-5.53-2.52,2.31-4.57,1.66-7.07,1.94-5.25.59-4.68,5-4.49,8.38.7,12.17,1.12,24.41,2.78,36.47,2.13,15.46.89,31.57,12.25,45.14,6.44,7.7,12.34,16,19.37,23.18,4.61,4.73,15.33,4.77,18.71,0,4.56-6.41,6.47-14.25,12.34-20.29,3.48-3.59,3.76-10.26,4.56-15.82A207.91,207.91,0,0,0,186,73.76c-.35-10.74-1.65-21.46-2.8-32.17-.4-3.64-1.91-6.36-5.82-2.29C176.68,40,175.56,40.21,173.68,41.12Zm239,38.5c2.25-6.44,1.47-13.33.78-19.15-1.06-9-6.68-17.3-13.85-23.59C394,32,386.23,33,382.32,39.25c-6.57,10.49-13.79,20.7-16.63,33.1-.57,2.5-.77,6.08-2.43,7.11-3.35,2.1-1.88,3.5-.35,5.23a38.68,38.68,0,0,0,18.46,12c1.13.32,3.52.38,3.37-.05-1.75-5.07,2.8-2.47,3.34-2.29,3.59,1.18,7.25,1.24,10.92,1.42a4.25,4.25,0,0,1,3.76,1.78c3.26,5,7.23,9.54,8.89,15.5,2.42,8.67.62,16-5.72,22.55-4.83,5-10.8,8.58-15.9,13.25-2.37,2.18-6.24,3.88-10.19,1.21-7.24-4.9-14.2-10-18.07-18.15-.63-1.34-1.53-3.17-3-2.24s-1.17,3.11-.05,4.41c5.1,6,8.31,13.31,13.95,18.89a17,17,0,0,0,6.15,3.77c8.76,3.41,14.79-3,20.77-6.5,5.73-3.35,10.72-8.38,17.09-10.93,3.7-1.48,4.55-3.66,4.84-7.44,1-12.69-2.86-25-2.65-37.6.05-3.34-2.28-7.6-6.38-7-9.48,1.43-16.82-3.61-24.33-7.41-11.87-6-12.73-9.57-7-20.69a54.21,54.21,0,0,1,5.18-7.72c6.09-8,11.19-7.48,15.61,1.43C406.19,61.46,411,69.84,412.66,79.62Zm-64.43,1.9c.83-13.12-1.42-26-2.49-39-.18-2.21-1.35-6.29-3-4.91-7.95,6.54-6.76-.35-7.64-4.58a7.77,7.77,0,0,0-.88-2.32,1.44,1.44,0,0,0-2.09-.62c-.45.27-1.06,1-1,1.37,1.39,4.66-1.14,9.1-.17,14,4,20.38,8.45,40.86,4.47,61.82-1.84,9.68-2.67,19.67-7.27,28.65-4.31,8.42-13.73,9.67-19.86,2.77C304.14,134,300.4,129,298.2,123c-3.38-9.2-9.31-17.2-10.32-27.59a200.9,200.9,0,0,1,3.08-58c.37-2,1.63-3.82-.87-5.48s-3.7-1.27-4.66,1.41c-.44,1.23-1.18.29-1.9.09-4.59-1.28-7,.43-7.44,5.26-.74,7.31,1.69,14.34,1.62,21.54-.17,18.05,2.56,35.75,6.29,53.32.36,1.7.63,4.37,2.48,4.71,3.87.7,4.43,3.87,5.94,6.44a85.16,85.16,0,0,0,22.12,24.53c1.46,1.12,3,2.34,5.53,1.59,7-2.09,12-6.22,13.55-13.32,1.49-6.64,8.62-9.19,10.08-16A202.22,202.22,0,0,0,348.23,81.52ZM99.71,112.87C98,120.46,96.17,128,94.53,135.63,91.8,148.33,82,152.27,71.37,144.9a27,27,0,0,0-4.15-2.62c-13.16-5.95-19.85-16-19.71-30.56.09-10.2-.47-20.42,0-30.6s-.28-20.23,1.1-30.38c1.17-8.63,2-17.28,3.9-25.79.29-1.29.66-4.71-1.16-3.55-2.25,1.45-6.39,2.78-6.59,3.75-1.21,5.72-6.88,10.1-4.4,17.52-2.86-3.53-2.28-6.79-2.59-9.8s-1.76-5.52-4.88-5.29c-4.15.31-2.17,3.61-1.93,5.8,1.15,10.88,5.19,21.16,5.82,32.28a541.63,541.63,0,0,1,.55,59.76c-.24,4.6-2.82,10.5-6.47,11.89-6.38,2.42-4.75,6.11-4.64,10.57,2.5-.16,3.16-2.43,5.16-2.68,12.6-1.59,24.72,1.21,36.38,5.06,10.06,3.32,20.13,7.07,29.41,12.52,1.23.73,2.63,3.2,4.74,1.36C97.1,147.09,100.15,129.93,99.71,112.87Zm6.35-8-.31-.36c-.11.12-.31.22-.31.34s.18.23.29.35Z"/><path class="cls-2" d="M226.64,106.2c-5.63.4-7.5,3.37-7.36,9,.52,20.87.18,41.77,3.62,62.47.26,1.55.61,3.19-1.2,5.18,0-9-2.09-17.36-4.3-25s-1.83-14.87-3-22.21a173.87,173.87,0,0,1-1.7-19.22c-.21-4.64-.91-8.19-6.83-7.58-1.41.15-3.89.35-3.6-2,.23-1.91,2.33-1.11,3.67-.89,4,.68,5.53-.48,5.16-4.91-1-12.14-1.62-24.31-5-36.13-.74-2.56-.7-5.33-1.05-8-.24-1.83,0-4.28-1.89-5-2.16-.8-4.48.25-6.24,1.84a27.5,27.5,0,0,0-2.36,2.87c-.64.76-1.29,1.87-2.46,1a1.94,1.94,0,0,1-.27-2.79c2.51-3.69,4.08-8.13,8.93-10.21-1.86-1.57-4.8.2-5.29-2.61s2.26-2.69,3.63-3.24c6.58-2.61,12.22-7.14,20.21-6.8,11.09.47,20.62,5,30.41,9.1,5.8,2.41,10.61,6.51,14.93,11.07a7.26,7.26,0,0,1,1.8,7.38c-4.38,15.94-12.75,29.58-23.95,42-.74-2.38-1-5.54-4-1.85a35.15,35.15,0,0,1-5.22,5.78c-1.54,1.23-3.12,3.83-5.8,1.67.32-.35,1-.93.91-1C227.85,105.28,227.22,105.7,226.64,106.2ZM220.18,92c-.15,2.68-.39,5.36-.42,8,0,1.69-1,4.23,1.75,4.46,2.1.18,4.55.37,6.18-1.89,7.81-10.87,16.09-21.36,24.7-31.62,4.47-5.33,2.93-18.62-2.25-20.55-7.07-2.63-14.11-5.77-22.2-3.94-3.14.71-4.19,1.5-4.8,4.77C220.58,64.74,221.24,78.41,220.18,92Z"/><path class="cls-2" d="M173.68,41.12c1.88-.91,3-1.14,3.65-1.82,3.91-4.07,5.42-1.35,5.82,2.29C184.3,52.3,185.6,63,186,73.76a207.91,207.91,0,0,1-2.42,36.43c-.8,5.56-1.08,12.23-4.56,15.82-5.87,6-7.78,13.88-12.34,20.29-3.38,4.76-14.1,4.72-18.71,0-7-7.23-12.93-15.48-19.37-23.18C117.19,109.54,118.43,93.43,116.3,78c-1.66-12.06-2.08-24.3-2.78-36.47-.19-3.43-.76-7.79,4.49-8.38,2.5-.28,4.55.37,7.07-1.94,1.52-1.4,4.72,1.78,3.68,5.53-3.16,11.44-3.9,23.26-4.46,35-.87,18,1.42,35.43,11.3,51.21,3.5,5.59,6.24,11.65,10.81,16.54,5.26,5.6,14.45,4.47,18.64-2.24,2.35-3.75,3.2-8.06,4.27-12.19,4.43-17.08,6.66-34.29,3.73-52-1.72-10.34-2.78-20.78-5.19-31-.82-3.48,1.85-6.79.91-10.39a1.75,1.75,0,0,1,.72-1.48c.83-.47,1.5.06,2.06.77C173.72,33.66,173.87,36.93,173.68,41.12Z"/><path class="cls-2" d="M412.66,79.62c-1.62-9.78-6.47-18.16-10.73-26.76-4.42-8.91-9.52-9.39-15.61-1.43a54.21,54.21,0,0,0-5.18,7.72c-5.74,11.12-4.88,14.69,7,20.69,7.51,3.8,14.85,8.84,24.33,7.41,4.1-.62,6.43,3.64,6.38,7-.21,12.62,3.65,24.91,2.65,37.6-.29,3.78-1.14,6-4.84,7.44-6.37,2.55-11.36,7.58-17.09,10.93-6,3.51-12,9.91-20.77,6.5a17,17,0,0,1-6.15-3.77C367,147.35,363.79,140,358.69,134c-1.12-1.3-1.39-3.52.05-4.41s2.4.9,3,2.24c3.87,8.2,10.83,13.25,18.07,18.15,4,2.67,7.82,1,10.19-1.21,5.1-4.67,11.07-8.21,15.9-13.25,6.34-6.6,8.14-13.88,5.72-22.55-1.66-6-5.63-10.51-8.89-15.5A4.25,4.25,0,0,0,399,95.73c-3.67-.18-7.33-.24-10.92-1.42-.54-.18-5.09-2.78-3.34,2.29.15.43-2.24.37-3.37.05a38.68,38.68,0,0,1-18.46-12c-1.53-1.73-3-3.13.35-5.23,1.66-1,1.86-4.61,2.43-7.11,2.84-12.4,10.06-22.61,16.63-33.1C386.23,33,394,32,399.59,36.88c7.17,6.29,12.79,14.63,13.85,23.59C414.13,66.29,414.91,73.18,412.66,79.62Zm-19.87,6.9c-5-3.63-10.19-7.21-16.91-7.51C380.53,83.4,386.73,84.53,392.79,86.52Z"/><path class="cls-2" d="M348.23,81.52a202.22,202.22,0,0,1-4.53,40c-1.46,6.79-8.59,9.34-10.08,16-1.58,7.1-6.57,11.23-13.55,13.32-2.52.75-4.07-.47-5.53-1.59a85.16,85.16,0,0,1-22.12-24.53c-1.51-2.57-2.07-5.74-5.94-6.44-1.85-.34-2.12-3-2.48-4.71-3.73-17.57-6.46-35.27-6.29-53.32.07-7.2-2.36-14.23-1.62-21.54.48-4.83,2.85-6.54,7.44-5.26.72.2,1.46,1.14,1.9-.09,1-2.68,2.28-3,4.66-1.41s1.24,3.53.87,5.48a200.9,200.9,0,0,0-3.08,58c1,10.39,6.94,18.39,10.32,27.59,2.2,6,5.94,11,10.12,15.69,6.13,6.9,15.55,5.65,19.86-2.77,4.6-9,5.43-19,7.27-28.65,4-21-.46-41.44-4.47-61.82-1-4.89,1.56-9.33.17-14-.11-.34.5-1.1,1-1.37a1.44,1.44,0,0,1,2.09.62,7.77,7.77,0,0,1,.88,2.32c.88,4.23-.31,11.12,7.64,4.58,1.68-1.38,2.85,2.7,3,4.91C346.81,55.48,349.06,68.4,348.23,81.52Zm-7.47-33.11c.61,7.41,2.05,14,2,20.76C342.59,62.44,343.53,55.62,340.76,48.41Z"/><path class="cls-2" d="M99.71,112.87c.44,17.06-2.61,34.22,2.24,51.27-2.11,1.84-3.51-.63-4.74-1.36-9.28-5.45-19.35-9.2-29.41-12.52-11.66-3.85-23.78-6.65-36.38-5.06-2,.25-2.66,2.52-5.16,2.68-.11-4.46-1.74-8.15,4.64-10.57,3.65-1.39,6.23-7.29,6.47-11.89a541.63,541.63,0,0,0-.55-59.76c-.63-11.12-4.67-21.4-5.82-32.28-.24-2.19-2.22-5.49,1.93-5.8,3.12-.23,4.56,2.14,4.88,5.29s-.27,6.27,2.59,9.8c-2.48-7.42,3.19-11.8,4.4-17.52.2-1,4.34-2.3,6.59-3.75,1.82-1.16,1.45,2.26,1.16,3.55-1.92,8.51-2.73,17.16-3.9,25.79-1.38,10.15-.58,20.26-1.1,30.38s.05,20.4,0,30.6c-.14,14.57,6.55,24.61,19.71,30.56a27,27,0,0,1,4.15,2.62c10.64,7.37,20.43,3.43,23.16-9.27C96.17,128,98,120.46,99.71,112.87Z"/><path class="cls-4" d="M357.94,99.44l-1.57-.68c.14-.14.33-.42.41-.39.52.18,1,.44,1.52.66Z"/><path class="cls-4" d="M106.06,104.86l-.33.34c-.11-.12-.3-.24-.29-.35s.2-.22.31-.34Z"/><path class="cls-3" d="M220.18,92c1.06-13.56.4-27.23,3-40.72.61-3.27,1.66-4.06,4.8-4.77,8.09-1.83,15.13,1.31,22.2,3.94,5.18,1.93,6.72,15.22,2.25,20.55-8.61,10.26-16.89,20.75-24.7,31.62-1.63,2.26-4.08,2.07-6.18,1.89-2.75-.23-1.77-2.77-1.75-4.46C219.79,97.33,220,94.65,220.18,92Z"/><path class="cls-3" d="M226.64,106.2c.58-.5,1.21-.92,1.79-.08.06.09-.59.67-.91,1C227.22,106.83,226.93,106.51,226.64,106.2Z"/><path class="cls-3" d="M392.79,86.52c-6.06-2-12.26-3.12-16.91-7.51C382.6,79.31,387.84,82.89,392.79,86.52Z"/><path class="cls-3" d="M340.76,48.41c2.77,7.21,1.83,14,2,20.76C342.81,62.42,341.37,55.82,340.76,48.41Z"/></g></g></svg>